<?xml version="1.0" encoding="utf-8"?>
<!-- Generator: Adobe Illustrator 26.0.2, SVG Export Plug-In . SVG Version: 6.00 Build 0)  -->
<svg version="1.1" id="Warstwa_1" xmlns="http://www.w3.org/2000/svg" xmlns:xlink="http://www.w3.org/1999/xlink" x="0px" y="0px"
	 viewBox="0 0 430 430" style="enable-background:new 0 0 430 430;" xml:space="preserve">
<style type="text/css">
	.st0{fill:url(#SVGID_1_);}
	.st1{fill:url(#SVGID_00000118358952118187988640000011889060463899193252_);}
	.st2{fill:url(#SVGID_00000036237741826316263370000000538804585906956222_);}
	.st3{fill:url(#SVGID_00000036252866914958301180000006008942596407051667_);}
	.st4{fill:url(#SVGID_00000157266260044348261070000008550848101706769081_);}
	.st5{fill:url(#SVGID_00000070090541421173062990000009864840565543366020_);}
	.st6{fill:url(#SVGID_00000067201100472744832830000016317156756695975603_);}
	.st7{fill:url(#SVGID_00000173155802046551256410000013856254403677997953_);}
	.st8{fill:url(#SVGID_00000176016532348596642230000017502812870868684426_);}
	.st9{fill:url(#SVGID_00000031901612079229525150000008247110396512262023_);}
	.st10{fill:url(#SVGID_00000034081057849462479580000007792115785511068339_);}
	.st11{fill:url(#SVGID_00000014594757776396981180000016224492446425593508_);}
	.st12{fill:url(#SVGID_00000096747487525464599360000010309345675577249442_);}
	.st13{fill:url(#SVGID_00000023999496697560328330000009861188439121022087_);}
	.st14{fill:url(#SVGID_00000155828698000723258090000000768979221171707540_);}
	.st15{fill:url(#SVGID_00000080201705795682225260000005923343236864923781_);}
	.st16{fill:url(#SVGID_00000155826607458827724170000003956131652485794956_);}
	.st17{fill:url(#SVGID_00000147220503030451215100000009235377253106332602_);}
	.st18{fill:url(#SVGID_00000000911397577881086830000015232085521317833907_);}
	.st19{fill:url(#SVGID_00000049928225064582122080000008755534095298728592_);}
	.st20{fill:url(#SVGID_00000078747518539338242370000005622269951846794113_);}
	.st21{fill:url(#SVGID_00000108269596527368279530000016129244731379185025_);}
	.st22{fill:url(#SVGID_00000172404937104118738360000009296156927509691777_);}
	.st23{fill:url(#SVGID_00000160888425721049255040000005901055910085452699_);}
	.st24{fill:url(#SVGID_00000121978887694921639830000012815704509626886830_);}
	.st25{fill:url(#SVGID_00000034799318817585399610000017765630128267993000_);}
	.st26{fill:url(#SVGID_00000024722397195495123410000012733760064454700685_);}
	.st27{fill:url(#SVGID_00000162312318784313601520000007087867069393357738_);}
	.st28{fill:url(#SVGID_00000010297422364028034930000017006907970064238732_);}
	.st29{fill:url(#SVGID_00000094591391778487593790000012267659088818457499_);}
	.st30{fill:url(#SVGID_00000163049920576115244060000008423999375172035723_);}
	.st31{fill:url(#SVGID_00000059311363721727594360000007388287778502388608_);}
	.st32{fill:url(#SVGID_00000091730793961783934180000014190004323653664152_);}
	.st33{fill:url(#SVGID_00000067941946084342538000000007924269433721574305_);}
	.st34{fill:url(#SVGID_00000157293623996234221680000009864608035326357648_);}
	.st35{fill:url(#SVGID_00000174568473474724121280000009388131868663198634_);}
	.st36{fill:url(#SVGID_00000117640362915388301550000003947767640358097318_);}
	.st37{fill:url(#SVGID_00000036250116280741836230000014190464284740061114_);}
	.st38{fill:url(#SVGID_00000067953943482075652450000018054504512554832048_);}
	.st39{fill:url(#SVGID_00000056428849475250052000000017253780471049096585_);}
	.st40{fill:url(#SVGID_00000182518719417201501220000017645620236397964461_);}
	.st41{fill:url(#SVGID_00000180361893902348151100000016073126851757132474_);}
	.st42{fill:url(#SVGID_00000061437219385876522330000000228970909864487059_);}
	.st43{fill:url(#SVGID_00000121268461467310975390000009752006543781785506_);}
	.st44{fill:url(#SVGID_00000018200032550234050790000014780515085595734170_);}
	.st45{fill:url(#SVGID_00000122715446867049935270000009166623206671709334_);}
	.st46{fill:url(#SVGID_00000052073866236258976130000009666118918897952446_);}
	.st47{fill:url(#SVGID_00000065044172756200681660000004884530654468043407_);}
	.st48{fill:url(#SVGID_00000078756464809459535850000018338856407396390804_);}
	.st49{fill:url(#SVGID_00000013163704588809299720000004734676172058594442_);}
	.st50{fill:url(#SVGID_00000081605373238056277460000005971628056271168684_);}
	.st51{fill:url(#SVGID_00000085235177141727034150000016839845133113577344_);}
	.st52{fill:url(#SVGID_00000114074689147706512270000012688975475918779818_);}
	.st53{fill:url(#SVGID_00000181052486430793215630000012094549820137860531_);}
	.st54{fill:url(#SVGID_00000065765861422776622680000006402265354070316204_);}
	.st55{fill:url(#SVGID_00000074441069577392459440000007226911405711022981_);}
	.st56{fill:url(#SVGID_00000176022297082803104950000007108859519225662390_);}
</style>
<linearGradient id="SVGID_1_" gradientUnits="userSpaceOnUse" x1="88.929" y1="137.8666" x2="321.7859" y2="370.7235">
	<stop  offset="0" style="stop-color:#CB5EEE"/>
	<stop  offset="1" style="stop-color:#4BE1EC"/>
</linearGradient>
<path class="st0" d="M378.83,209.79v-3.84c0-14.09-11.52-25.56-25.69-25.56h-54.23c-6.57,0-11.32-1.37-13.74-3.96
	c-1.91-2.04-1.91-4.45-1.9-4.88c0.04-0.25,0.03-0.31,0.03-0.59c0.01-1.96,0.33-48.12,0-59.61c-0.27-9.31-5.3-19.84-12.83-26.81
	c-6.15-5.7-13.29-8.53-20.64-8.17c-16.38,0.78-20.95,11.66-21.07,17.3c0,0.05,0,0.1,0,0.14l0.06,36.79c0,5.67-1.35,11.28-3.92,16.22
	c-17.93,34.57-48.73,42.63-53.35,43.66h-20.02v-12.36c0-3.31-2.69-6-6-6H57.17c-3.31,0-6,2.69-6,6v154.44c0,3.31,2.69,6,6,6h88.38
	c3.31,0,6-2.69,6-6v-0.1c25.61,0.15,27.9,1.41,35.78,5.74c2.2,1.21,4.93,2.71,8.54,4.45c3.51,1.69,6.95,3.24,10.22,4.62
	c10.07,4.25,20.7,6.41,31.6,6.41h92.26c0.39,0,0.73-0.03,0.98-0.06c11.42-0.68,20.37-9.76,20.86-21.23
	c0.19-4.52-1.03-8.24-3.04-11.24c10.66-2.78,18.08-12.15,18.08-23.94v-3.47c0-5.66-2.14-10.6-5.49-14.54
	c10.07-3.18,17.19-12.69,17.19-24.23v-6.57c0-7.85-4.4-14.29-10.64-18.51C374.37,224.79,378.83,217.33,378.83,209.79z M240.77,93.78
	c0-0.01,0-0.01,0-0.01s0,0.08,0,0.13V93.78z M139.55,326.55H63.17V184.11h76.38v12.36v129.96V326.55z M366.83,209.79
	c0,6.98-8.73,14.64-16.68,14.64c-3.31,0-6,2.69-6,6s2.69,6,6,6c7.73,0,16.38,5.12,16.38,11.96v6.57c0,7.62-5.44,13.37-12.66,13.37
	c-0.11,0-0.22,0-0.33,0.01l-13.13,0.73c-2.87,0.16-5.24,2.4-5.62,5.25c-0.22,1.65,0.25,3.31,1.3,4.6s2.59,2.08,4.25,2.19
	c7,0.46,14.49,5.64,14.49,12.62v3.47c0,7.41-5.38,12.78-12.87,12.78l-13.08,0.18c-3.12,0.04-5.67,2.47-5.89,5.59s2,5.87,5.09,6.35
	c0.49,0.08,12.05,1.95,11.72,9.77c0,0,0,0,0,0c-0.23,5.31-4.4,9.5-9.7,9.76c-0.11,0-0.25,0.02-0.39,0.03H237.7
	c-9.29,0-18.35-1.84-26.93-5.46c-3.09-1.31-6.35-2.78-9.7-4.39c-3.31-1.59-5.77-2.95-7.95-4.14c-9.97-5.49-13.92-7.05-41.57-7.23
	V202.47h20.32c0.63,0,1.27-0.07,1.92-0.2c4.13-0.88,40.93-9.73,61.78-49.93c3.44-6.64,5.26-14.16,5.26-21.75L240.77,94
	c0.15-1.34,1.31-5.26,9.64-5.66c5.13-0.23,9.31,2.58,11.91,4.99c5.12,4.74,8.81,12.29,8.99,18.35c0.31,10.89,0.02,55.45,0,58.97
	c-0.12,1.8-0.14,8.1,4.79,13.63c4.79,5.38,12.47,8.11,22.81,8.11h54.23c7.42,0,13.69,6.21,13.69,13.56V209.79z"/>
</svg>
